<?xml version="1.0" standalone="no"?>
<!DOCTYPE svg PUBLIC "-//W3C//DTD SVG 20010904//EN"
 "http://www.w3.org/TR/2001/REC-SVG-20010904/DTD/svg10.dtd">
<svg version="1.0" xmlns="http://www.w3.org/2000/svg"
 width="960.000000pt" height="960.000000pt" viewBox="0 0 960.000000 960.000000"
 preserveAspectRatio="xMidYMid meet">
<metadata>
Created by potrace 1.11, written by Peter Selinger 2001-2013
</metadata>
<g transform="translate(0.000000,960.000000) scale(0.100000,-0.100000)"
fill="#000000" stroke="none">
<path d="M4507 9594 c-2 -3 -39 -6 -82 -9 -43 -2 -101 -7 -129 -10 -28 -4 -69
-8 -91 -10 -22 -2 -55 -6 -73 -9 -44 -7 -105 -16 -139 -21 -26 -4 -94 -15
-173 -30 -57 -10 -364 -87 -375 -93 -5 -4 -15 -7 -22 -8 -27 -4 -185 -59 -278
-96 -139 -55 -150 -59 -152 -59 -2 1 -38 -17 -82 -39 -44 -22 -84 -40 -90 -40
-6 0 -11 -5 -11 -12 0 -6 -3 -8 -7 -5 -3 4 -14 0 -24 -9 -9 -8 -23 -16 -31
-18 -7 -1 -46 -23 -86 -49 -40 -26 -75 -47 -78 -47 -10 0 -169 -93 -172 -101
-2 -5 -10 -9 -18 -9 -8 0 -14 -4 -14 -9 0 -5 -8 -12 -17 -15 -10 -4 -32 -19
-49 -34 -17 -15 -48 -40 -69 -57 -71 -58 -265 -258 -265 -274 0 -5 -3 -11 -8
-13 -4 -1 -26 -28 -49 -58 -24 -30 -46 -59 -51 -65 -4 -5 -18 -27 -31 -48 -13
-21 -28 -43 -34 -50 -7 -6 -25 -37 -41 -67 -16 -30 -32 -57 -36 -60 -3 -3 -15
-23 -27 -45 -11 -22 -32 -61 -46 -87 -14 -27 -22 -48 -19 -48 4 0 2 -4 -3 -8
-9 -6 -33 -51 -40 -72 -3 -10 -19 -47 -40 -95 -12 -27 -30 -75 -39 -105 -10
-30 -22 -64 -27 -75 -12 -27 -66 -224 -73 -266 -3 -19 -10 -56 -15 -84 -24
-125 -34 -334 -20 -430 4 -27 10 -97 14 -155 9 -135 11 -167 19 -212 3 -21 9
-55 12 -75 10 -69 12 -77 37 -183 28 -116 94 -320 108 -335 5 -5 9 -15 9 -22
0 -44 236 -458 295 -516 8 -9 15 -20 15 -25 0 -6 3 -12 7 -14 5 -1 32 -32 62
-68 63 -76 285 -298 353 -353 26 -21 75 -61 110 -88 35 -28 71 -56 81 -64 9
-8 19 -15 22 -15 3 0 38 -24 78 -53 98 -73 223 -152 367 -233 36 -21 67 -41
68 -46 2 -4 8 -8 14 -8 6 0 50 -21 97 -47 47 -26 87 -45 87 -42 1 2 10 -3 20
-12 21 -17 124 -68 138 -68 5 1 12 -3 15 -8 3 -6 40 -26 81 -45 41 -20 118
-56 170 -81 52 -24 230 -104 395 -177 165 -73 324 -143 353 -156 29 -13 80
-36 115 -50 34 -14 82 -35 107 -47 106 -48 168 -76 215 -96 60 -27 98 -45 320
-151 94 -44 179 -85 189 -91 11 -6 40 -23 65 -36 57 -31 72 -50 66 -81 -2 -14
-8 -46 -12 -71 -4 -25 -7 -48 -8 -51 -28 -138 -122 -269 -241 -336 -57 -32
-174 -78 -174 -69 0 3 -12 0 -27 -6 -46 -17 -133 -24 -308 -23 -186 0 -232 4
-435 39 -180 31 -584 133 -720 183 -8 3 -17 6 -20 7 -22 6 -58 18 -75 25 -11
4 -42 15 -70 23 -27 9 -88 30 -135 47 -47 17 -89 33 -95 34 -20 4 -500 192
-585 229 -14 5 -27 11 -30 12 -3 1 -13 5 -22 9 -24 11 -29 6 -63 -61 -16 -32
-32 -60 -35 -63 -3 -3 -43 -79 -89 -170 -46 -91 -88 -166 -93 -168 -4 -2 -8
-9 -8 -15 0 -7 -6 -23 -13 -37 -53 -99 -144 -273 -193 -370 -33 -63 -61 -117
-64 -120 -3 -3 -28 -50 -56 -105 -28 -55 -78 -152 -111 -215 -33 -63 -91 -173
-128 -245 -104 -199 -147 -279 -157 -292 -6 -7 -7 -13 -3 -13 4 0 3 -6 -3 -13
-6 -6 -42 -74 -81 -149 l-71 -136 43 -25 c126 -74 230 -131 337 -184 52 -27
96 -51 98 -55 2 -5 9 -8 15 -8 7 0 47 -18 89 -39 42 -21 79 -37 81 -35 2 3 10
-2 17 -11 7 -8 18 -15 25 -15 7 0 33 -10 57 -21 23 -12 52 -26 63 -30 11 -4
55 -24 98 -44 43 -19 83 -35 89 -35 5 0 22 -6 36 -14 49 -25 196 -82 337 -131
44 -15 89 -31 100 -36 11 -4 65 -22 120 -40 55 -17 120 -38 145 -46 25 -8 52
-16 61 -18 9 -2 47 -12 85 -24 85 -24 257 -68 303 -76 19 -3 38 -8 42 -11 5
-3 21 -7 36 -9 16 -2 39 -7 53 -10 49 -11 295 -56 325 -60 17 -1 41 -5 55 -8
23 -6 93 -15 165 -22 17 -2 55 -6 85 -9 288 -32 773 -37 955 -10 17 2 53 7 80
9 58 6 192 24 221 29 10 2 39 7 64 11 25 4 81 15 125 25 45 11 92 21 105 24
56 10 205 50 210 55 3 3 18 7 35 9 16 2 32 7 35 11 3 3 12 6 20 6 18 -1 177
54 280 96 92 38 275 130 324 164 20 14 40 25 44 25 4 0 45 27 92 60 47 33 93
65 104 72 10 7 24 18 30 23 6 6 33 28 61 50 113 91 270 248 350 351 17 21 38
46 48 56 9 10 17 20 17 23 0 3 5 11 11 18 27 31 129 180 141 207 7 16 16 30
19 30 13 0 224 441 233 488 1 9 8 30 15 46 11 26 61 175 68 201 43 163 61 240
58 244 -3 2 -1 9 4 15 5 6 12 31 16 56 13 81 13 85 15 85 2 0 4 9 5 20 6 45
16 111 20 125 7 30 22 157 42 370 13 140 7 407 -11 495 -2 11 -7 40 -10 65 -3
25 -9 59 -12 75 -9 53 -63 241 -86 302 -12 32 -23 63 -24 68 -2 12 -69 160
-86 190 -6 11 -27 49 -46 85 -140 262 -415 572 -719 813 -43 34 -80 64 -83 68
-12 15 -354 242 -440 292 -52 30 -115 67 -140 81 -25 15 -61 34 -80 44 -19 9
-37 20 -40 23 -17 21 -642 316 -885 419 -55 23 -108 46 -118 51 -9 5 -52 23
-95 40 -89 35 -283 115 -327 134 -17 8 -91 38 -165 68 -152 62 -179 73 -235
97 -22 10 -57 23 -78 31 -44 15 -48 20 -65 70 -29 87 -14 174 40 230 38 39
120 84 173 93 13 3 28 7 33 10 33 20 443 29 577 12 64 -8 86 -10 180 -21 33
-4 71 -9 85 -11 14 -2 39 -7 56 -9 17 -3 46 -7 65 -9 19 -2 45 -7 59 -10 28
-6 70 -14 115 -21 17 -3 40 -7 53 -10 50 -11 61 -14 93 -19 19 -3 63 -12 99
-20 36 -8 77 -17 93 -20 54 -11 92 -20 172 -40 142 -35 134 -33 138 -35 1 -2
11 -4 22 -7 11 -2 56 -13 100 -25 144 -37 126 -43 183 63 28 51 63 116 77 143
15 28 41 76 57 107 16 32 34 60 39 63 5 4 9 15 9 26 0 10 5 19 10 19 6 0 10 6
10 14 0 7 9 25 20 39 11 14 20 32 20 41 0 9 4 16 9 16 5 0 14 12 20 28 5 15
30 63 54 107 24 44 61 114 83 155 21 41 41 77 44 80 3 3 12 18 20 35 8 16 33
64 56 105 22 41 59 109 81 150 22 41 49 91 61 111 11 21 35 66 53 100 18 35
40 75 49 89 10 14 21 36 25 50 4 14 11 27 15 30 4 3 33 55 65 115 32 61 70
133 85 160 15 28 44 82 65 120 74 137 87 160 97 172 8 10 -4 19 -48 39 -33 14
-77 34 -99 44 -22 10 -80 36 -130 58 -131 58 -233 102 -238 102 -3 0 -31 12
-63 27 -33 15 -64 28 -70 29 -6 1 -27 9 -45 17 -19 8 -70 28 -114 45 -44 16
-89 33 -100 37 -11 5 -23 9 -27 10 -5 2 -10 4 -13 5 -3 1 -8 3 -12 4 -5 1 -60
19 -123 41 -63 22 -117 40 -120 40 -3 0 -39 11 -80 24 -41 13 -82 25 -91 26
-9 2 -36 10 -60 18 -24 8 -89 25 -144 38 -55 13 -101 27 -103 31 -2 4 -10 4
-18 1 -8 -3 -21 0 -29 7 -8 7 -15 10 -15 8 0 -3 -39 3 -87 13 -150 32 -229 47
-398 73 -90 14 -125 18 -230 31 -27 3 -108 11 -235 22 -61 5 -678 11 -683 7z"/>
</g>
</svg>
