<?xml version="1.0" encoding="UTF-8"?>
<svg width="150px" height="150px" viewBox="0 0 150 150" version="1.1" xmlns="http://www.w3.org/2000/svg" xmlns:xlink="http://www.w3.org/1999/xlink">
    <!-- Generator: Sketch 43.2 (39069) - http://www.bohemiancoding.com/sketch -->
    <title>logo-small</title>
    <desc>Created with Sketch.</desc>
    <defs></defs>
    <g id="Page-1" stroke="none" stroke-width="1" fill="none" fill-rule="evenodd">
        <g id="logo-small" stroke="#000000" stroke-width="10">
            <g id="Group" transform="translate(25.000000, 14.000000)">
                <path d="M90,32 L90,100" id="Line" stroke-linecap="round"></path>
                <path d="M64,121 L90,101" id="Line" stroke-linecap="round"></path>
                <path d="M64,98 L39,98" id="Line" stroke-linecap="round"></path>
                <path d="M64,98 L90,92" id="Line" stroke-linecap="round"></path>
                <path d="M39,98 L13,93" id="Line" stroke-linecap="round"></path>
                <path d="M12,32 L12,100" id="Line" stroke-linecap="round" transform="translate(12.500000, 66.000000) scale(-1, 1) translate(-12.500000, -66.000000) "></path>
                <path d="M13,121 L39,101" id="Line" stroke-linecap="round" transform="translate(26.000000, 111.000000) scale(-1, 1) translate(-26.000000, -111.000000) "></path>
                <path d="M64,121 L39,121" id="Line" stroke-linecap="round"></path>
                <path d="M49,44 C74.4050985,44 95,36.6126984 95,27.5 C95,18.3873016 85.4050985,11 49,11 C9.59808407,11 6,18.3873016 6,27.5 C6,36.6126984 23.5949015,44 49,44 Z" id="Oval-2" fill="#000000" stroke-linecap="square"></path>
                <ellipse id="Oval-3" stroke-linecap="square" cx="6.5" cy="58.5" rx="6.5" ry="12.5"></ellipse>
                <ellipse id="Oval-3" stroke-linecap="square" cx="95.5" cy="58.5" rx="5.5" ry="12.5"></ellipse>
                <path d="M24,8 C24,8 23,0.5 20,0.5 C17,0.5 5.5,18 5.5,23.5 C5.5,29 7,82.5 7,82.5" id="Path-4" stroke-linecap="round"></path>
                <path d="M99,33 L96.5,83.5" id="Path-5" stroke-linecap="round"></path>
            </g>
        </g>
    </g>
</svg>