<?xml version="1.0" standalone="no"?>
<!DOCTYPE svg PUBLIC "-//W3C//DTD SVG 1.1//EN" "http://www.w3.org/Graphics/SVG/1.1/DTD/svg11.dtd" >
<svg xmlns="http://www.w3.org/2000/svg" xmlns:xlink="http://www.w3.org/1999/xlink" version="1.1">
<metadata>
Created by FontForge 20161003 at Tue Nov 15 02:48:40 2016
 By www-data
Sidecar (c)2016
</metadata>
<defs>
<font id="Proletar-Regular" horiz-adv-x="600" >
  <font-face 
    font-family="Proletar"
    font-weight="400"
    font-stretch="normal"
    units-per-em="1000"
    panose-1="0 0 5 0 0 0 0 0 0 0"
    ascent="800"
    descent="-200"
    x-height="500"
    cap-height="700"
    bbox="-51 -220 944 800"
    underline-thickness="50"
    underline-position="-100"
    unicode-range="U+0020-2212"
  />
<missing-glyph horiz-adv-x="500" 
d="M410 800v-1000h-317v1000h317zM333 733h-165v-33h65v-37h-66v-33h166v33h-66v37h66v33zM267 604h-100v-104h166v34h-66v70zM233 570v-36h-33v36h33zM333 473h-166v-33h66v-37h-66v-33h100v70h66v33zM333 413h-33v-66h-133v-34h166v100zM333 291h-100v-56h34v23h33v-47
h-100v80h-33v-113h166v113zM333 118h-166v-113h166v113zM300 85v-47h-100v47h100zM333 -18h-166v-33h70l-70 -47v-33h166v33h-102l70 47h32v33z" />
    <glyph glyph-name=".notdef" horiz-adv-x="500" 
d="M410 800v-1000h-317v1000h317zM333 733h-165v-33h65v-37h-66v-33h166v33h-66v37h66v33zM267 604h-100v-104h166v34h-66v70zM233 570v-36h-33v36h33zM333 473h-166v-33h66v-37h-66v-33h100v70h66v33zM333 413h-33v-66h-133v-34h166v100zM333 291h-100v-56h34v23h33v-47
h-100v80h-33v-113h166v113zM333 118h-166v-113h166v113zM300 85v-47h-100v47h100zM333 -18h-166v-33h70l-70 -47v-33h166v33h-102l70 47h32v33z" />
    <glyph glyph-name="space" unicode=" " horiz-adv-x="225" 
 />
    <glyph glyph-name="A" unicode="A" horiz-adv-x="630" 
d="M558 50l77 -14v-36h-207v36l65 14l-71 184h-268l-68 -184l81 -14v-36h-208v36l64 14l234 597l-82 12l1 41h138zM175 288h229l-110 309z" />
    <glyph glyph-name="B" unicode="B" 
d="M535 321q39 -43 39 -116q0 -130 -79 -167t-150 -37l-317 -1v38l69 10v604l-69 10v38h327q31 0 74 -12t80 -49.5t37 -108.5q0 -102 -105 -155q55 -11 94 -54zM158 397h185q53 0 97.5 27t44.5 106q0 54 -26.5 79.5t-58 31t-72.5 5.5l-170 -1v-248zM514 203q0 66 -32.5 97.5
t-70 38t-83.5 6.5l-170 -1v-290h185q171 0 171 149z" />
    <glyph glyph-name="C" unicode="C" horiz-adv-x="657" 
d="M568 31.5q-29 -15.5 -76 -29t-106 -13.5q-105 0 -181 45.5t-115.5 126.5t-39.5 184t38.5 187.5t112 133.5t172.5 49q68 0 120 -17.5t83 -37.5t31 -23v-122h-43l-17 98q0 2 -22.5 14.5t-61 23t-90.5 10.5q-89 0 -147.5 -45t-85.5 -116.5t-27 -154.5q0 -86 31 -154.5
t92.5 -108t149.5 -39.5q55 0 102 14t78 31t31 19v-58q0 -2 -29 -17.5z" />
    <glyph glyph-name="D" unicode="D" horiz-adv-x="635" 
d="M553.5 141q-51.5 -78 -120 -109t-127.5 -31l-309 -1v38l69 10v604l-69 10v38h323q66 0 130.5 -32.5t109.5 -110.5t45 -206q0 -132 -51.5 -210zM125 54h171q85 0 166.5 56t81.5 239q0 188 -80 243.5t-168 55.5l-171 -1v-593z" />
    <glyph glyph-name="E" unicode="E" horiz-adv-x="552" 
d="M476 543l-12 103l-306 -1v-252l260 -2v-51l-260 -2v-283h306l12 103h46v-158h-495v38l69 10v604l-69 10v38h495v-157h-46z" />
    <glyph glyph-name="F" unicode="F" horiz-adv-x="502" 
d="M464 543l-10 103l-306 -1v-253l260 -2v-50l-260 -2v-290l99 -10v-38h-230v38l69 10v604l-69 10v38h495v-157h-48z" />
    <glyph glyph-name="G" unicode="G" horiz-adv-x="640" 
d="M632 301l-71 -10v-236q0 -2 -31.5 -20t-82.5 -33.5t-115 -15.5q-105 0 -181.5 45.5t-116 126.5t-39.5 184q0 104 36.5 188t107.5 133t169 49q74 0 128.5 -17t85.5 -37t31 -23v-122h-44l-17 99q0 2 -22 13t-63 20.5t-99 9.5q-130 0 -188.5 -90t-58.5 -223q0 -86 30.5 -154
t91.5 -107t149 -39q84 0 168 41v208l-97 10v38h229v-38z" />
    <glyph glyph-name="H" unicode="H" 
d="M-22 0v38l69 10v604l-69 10v38h228v-38l-98 -10v-282h368v282l-69 10v38h210v-38l-80 -10v-604l79 -10v-38h-209v38l69 10v270h-368v-270l89 -10v-38h-219z" />
    <glyph glyph-name="I" unicode="I" horiz-adv-x="249" 
d="M7 0v38l69 10v604l-69 10v38h199v-38l-71 -10v-604l71 -10v-38h-199z" />
    <glyph glyph-name="J" unicode="J" horiz-adv-x="263" 
d="M225 181q0 -111 -49.5 -172t-118.5 -96l-24 49q59 34 88 72.5t36.5 64t7.5 36.5v517l-69 10v38h129v-519z" />
    <glyph glyph-name="K" unicode="K" horiz-adv-x="655" 
d="M255 700v-38l-89 -10v-315l307 320l-64 5v38h213v-38l-82 -4l-255 -266l274 -345l103 -12v-35h-259v35l82 11l-243 300l-76 -79v-219l99 -10v-38h-225v38l69 10v604l-69 10v38h215z" />
    <glyph glyph-name="L" unicode="L" horiz-adv-x="552" 
d="M477 149h45v-149h-495v38l69 10v604l-69 10v38h220v-38l-89 -10v-595l305 -1z" />
    <glyph glyph-name="M" unicode="M" horiz-adv-x="887" 
d="M183 700l256 -564l255 564h155v-38l-89 -10v-604l99 -10v-38h-224v38l69 10v556l-244 -540h-43l-244 540v-556l99 -10v-38h-224v38l69 10v604l-69 10v38h135z" />
    <glyph glyph-name="N" unicode="N" horiz-adv-x="683" 
d="M7 0v38l69 10v604l-69 10v38h124l408 -593v545l-69 10v38h213v-38l-89 -10v-652h-41l-424 603v-555l89 -10v-38h-211z" />
    <glyph glyph-name="O" unicode="O" horiz-adv-x="700" 
d="M533.5 663.5q76.5 -47.5 116.5 -130t40 -185.5q0 -104 -40 -186t-116.5 -129.5t-182.5 -47.5q-105 0 -182.5 47.5t-118 130t-40.5 185.5q0 101 45 184t123 131t173 48q106 0 182.5 -47.5zM560 126q67 85 67 222q0 83 -28.5 152.5t-90 112.5t-157.5 43q-90 0 -152 -43.5
t-93 -113.5t-31 -151q0 -87 30 -156.5t92 -110t154 -40.5q142 0 209 85z" />
    <glyph glyph-name="P" unicode="P" horiz-adv-x="621" 
d="M510 661q84 -39 81 -177q0 -140 -82.5 -184.5t-175.5 -44.5l-145 -1v-206l99 -10v-38h-230v38l69 10v604l-69 10v38h274q95 0 179 -39zM528 478q0 105 -56 137.5t-137 32.5l-147 -1v-341h146q194 0 194 172z" />
    <glyph glyph-name="Q" unicode="Q" horiz-adv-x="757" 
d="M687.5 223.5q-22.5 -62.5 -59.5 -110t-77 -69.5l183 -7l-1 -47l-369 -1q-103 2 -179 49.5t-115.5 129.5t-39.5 184q0 101 45 184t123 131t173 48q106 0 182.5 -47.5t116.5 -130t40 -185.5q0 -66 -22.5 -128.5zM124 195.5q31 -70.5 93.5 -111.5t153.5 -41q92 0 154.5 41
t93 111t30.5 157q0 82 -29 152.5t-91 114t-158 43.5q-90 0 -152.5 -44t-94 -114.5t-31.5 -151.5q0 -86 31 -156.5z" />
    <glyph glyph-name="R" unicode="R" horiz-adv-x="665" 
d="M625 35v-35h-125l-153 265l-199 -1v-216l99 -10v-38h-230v38l69 10v604l-69 10v38h327q70 0 146.5 -38.5t76.5 -171.5q0 -91 -46.5 -144t-111.5 -71l133 -228zM446.5 352q58.5 34 58.5 136q0 68 -27 102.5t-67.5 44.5t-94.5 10h-168v-327h155q85 0 143.5 34z" />
    <glyph glyph-name="S" unicode="S" horiz-adv-x="537" 
d="M71.5 402.5q34.5 -31.5 80 -46t118.5 -27.5q60 -11 96.5 -21.5t62.5 -31.5t30 -56q1 -7 1 -21q0 -75 -47 -115.5t-141 -40.5q-90 0 -168 44l-13 87h-43v-123q0 -2 32.5 -18.5t79.5 -30.5t101 -14q104 0 180 45.5t76 166.5q0 20 -1 30q-3 52 -35 82.5t-77 45t-117 28.5
q-62 12 -99 22.5t-64 31.5t-32 56q-1 6 -1 19q0 72 49 107t130 35q42 0 76.5 -8.5t56 -18.5t21.5 -11l10 -86h42v122q0 2 -25.5 16.5t-70 26.5t-103.5 12q-111 0 -179 -51.5t-68 -144.5q0 -17 1 -25q6 -55 40.5 -86.5z" />
    <glyph glyph-name="T" unicode="T" horiz-adv-x="697" 
d="M380 647v-599l93 -10v-38h-245v38l90 10v598h-214l-12 -96h-42v150h597v-150h-39l-13 97h-215z" />
    <glyph glyph-name="U" unicode="U" horiz-adv-x="757" 
d="M630 223q0 -62 -31 -115.5t-88 -85.5t-132 -32q-69 0 -127 32.5t-92 89.5t-34 125v407l-76 17v39h225v-39l-88 -17l2 -395q0 -82 44.5 -142t145.5 -60q67 0 111 32t64 79t20 91v393l-89 17v41h242v-40l-97 -21v-416z" />
    <glyph glyph-name="V" unicode="V" 
d="M22 654l-63 10v36h217v-28l-84 -19l193 -535l202 534l-64 12v36h202v-34l-82 -16l-249 -650h-34z" />
    <glyph glyph-name="W" unicode="W" horiz-adv-x="810" 
d="M-51 669v31h211v-31l-84 -16l139 -519l166 516h54l167 -520l140 523l-64 16v31h205v-31l-83 -15l-178 -654h-41l-175 566l-179 -566h-37l-178 654z" />
    <glyph glyph-name="X" unicode="X" 
d="M539 51l100 -13v-38h-223v34l56 11l-170 264l-173 -259l97 -12v-38h-234v34l69 13l208 305l-193 302l-61 13v33h212v-33l-77 -14l152 -244l166 243l-52 15v33h192v-33l-78 -15l-196 -285z" />
    <glyph glyph-name="Y" unicode="Y" horiz-adv-x="640" 
d="M24 654l-63 10v36h225v-33l-91 -14l201 -295l189 295l-70 11v36h206v-34l-75 -13l-222 -342v-263l99 -10v-38h-232v38l69 10v263z" />
    <glyph glyph-name="Z" unicode="Z" horiz-adv-x="606" 
d="M543 700v-54l-418 -591h375l11 97h45v-152h-506v47l423 597h-366l-12 -95h-44v151h492z" />
    <glyph glyph-name="a" unicode="a" horiz-adv-x="532" 
d="M433 48l79 -10v-38h-129l-6 72q0 -3 -20.5 -23t-55 -37.5t-79.5 -17.5q-86 0 -137.5 46.5t-51.5 123.5q0 65 44.5 98t141.5 37h158v43q0 13 -8 38.5t-39.5 50.5t-94.5 25q-32 0 -65.5 -5.5t-33.5 -6.5l-6 -81h-46v124q5 2 26 6.5t54.5 9t70.5 4.5q198 0 198 -180v-279z
M377 254l-155 -1q-47 0 -86.5 -16.5t-39.5 -75.5t32 -87.5t96 -28.5q55 0 89.5 24.5t49 55t14.5 47.5v82z" />
    <glyph glyph-name="b" unicode="b" horiz-adv-x="586" 
d="M467.5 466q53.5 -41 76 -99t22.5 -113q0 -67 -28 -127.5t-81.5 -98t-125.5 -37.5q-58 0 -99 21t-64 45t-23 28l-9 -85h-52v652l-69 10v38h129v-305q0 5 22 33.5t63 53.5t99 25q86 0 139.5 -41zM427 76q39 29 58 76t19 101q0 52 -18.5 98.5t-59 76t-102.5 29.5
q-67 0 -107.5 -41t-56.5 -89t-16 -71v-13v-18q0 -40 17.5 -80.5t59.5 -69t109 -28.5q58 0 97 29z" />
    <glyph glyph-name="c" unicode="c" horiz-adv-x="453" 
d="M81 252q0 -103 50 -154.5t130 -51.5q44 0 78.5 7t55.5 15.5t21 9.5v-55q0 -1 -22 -9t-58 -15t-82 -7q-58 0 -111 25t-88 84.5t-35 157.5q0 141 74 197t174 56q48 0 82.5 -12t53.5 -26t19 -16v-111h-46l-16 93q-44 20 -96 20q-184 0 -184 -208z" />
    <glyph glyph-name="d" unicode="d" horiz-adv-x="551" 
d="M366 481q40 -26 59 -56t19 -36v263l-69 10v38h126v-700h-52l-6 97q0 -11 -23.5 -37t-66 -47.5t-98.5 -21.5q-72 0 -125.5 37.5t-81.5 98t-28 127.5q0 54 24.5 112.5t79.5 99.5t141 41q61 0 101 -26zM371.5 81.5q41.5 32.5 56 75t14.5 81.5v31q0 22 -15.5 65.5t-54 80.5
t-103.5 37q-63 0 -105 -28.5t-62 -74t-20 -96.5q0 -54 19 -100.5t58 -75t97 -28.5q74 0 115.5 32.5z" />
    <glyph glyph-name="e" unicode="e" horiz-adv-x="500" 
d="M424 440q46 -67 46 -159q0 -26 -3 -50l-374 2q0 -19 11 -61t50 -83.5t115 -41.5q40 0 77.5 7t61.5 14.5t30 9.5v-56q-5 -2 -25.5 -9t-57 -13.5t-83.5 -6.5q-112 0 -175 69t-63 187q0 119 63 188.5t175 69.5q106 0 152 -67zM411 298q0 33 -13.5 69t-45 62t-82.5 26
q-76 0 -115 -38.5t-49.5 -77.5t-10.5 -57h315q1 5 1 16z" />
    <glyph glyph-name="f" unicode="f" horiz-adv-x="279" 
d="M172.5 632q-23.5 -29 -23.5 -64v-68h103v-51h-103v-401l79 -10v-38h-197v38l62 10v401h-63v36l63 11v64q0 70 39 111.5t112 41.5q20 0 38 -4t28.5 -8t13.5 -5v-49q-7 2 -32.5 8t-48.5 6q-47 0 -70.5 -29z" />
    <glyph glyph-name="g" unicode="g" horiz-adv-x="472" 
d="M447 504v-40l-85 -11q33 -38 47 -69t14 -70q0 -53 -25.5 -96t-70.5 -67t-100 -24q-46 0 -98 22q-18 -16 -25.5 -28t-5.5 -31q2 -26 33.5 -35t92.5 -12q64 0 109 -6t76 -27.5t31 -65.5q0 -55 -32 -92t-81.5 -54.5t-100.5 -17.5t-97 15t-75 41v98h40l8 -70q44 -30 125 -30
q23 0 59 7.5t67 29.5t31 62q0 35 -34.5 45t-96.5 10q-61 0 -102 6t-70 27.5t-33 64.5q-2 24 7.5 45.5t32.5 45.5q-33 34 -46.5 64.5t-13.5 72.5q0 54 26 97t70.5 68t99.5 25h223zM323.5 414.5q-39.5 39.5 -99.5 39.5q-58 0 -95.5 -39.5t-37.5 -100.5q0 -60 38 -99t98 -39
q58 0 97 39.5t39 98.5q0 61 -39.5 100.5z" />
    <glyph glyph-name="h" unicode="h" 
d="M525 48l89 -10v-38h-216v38l69 10l-1 269q0 14 -8.5 43.5t-40.5 58t-95 28.5q-62 0 -99.5 -26t-52.5 -58t-15 -52v-263l89 -10v-38h-216v38l69 10v604l-69 10v38h127v-280q0 3 24 25t63 41t89 19q116 0 155 -72t39 -145v-240z" />
    <glyph glyph-name="i" unicode="i" horiz-adv-x="285" 
d="M106.5 619q-13.5 13 -13.5 33q0 21 13.5 34t33.5 13t34 -11.5t14 -35.5q0 -20 -13 -33t-35 -13q-20 0 -33.5 13zM181 500v-452l89 -10v-38h-214v38l69 10v404l-69 10v38h125z" />
    <glyph glyph-name="j" unicode="j" horiz-adv-x="292" 
d="M145.5 619q-13.5 13 -13.5 33q0 21 13.5 34t33.5 13t34 -11.5t14 -35.5q0 -20 -13 -33t-35 -13q-20 0 -33.5 13zM222 81q0 -111 -49 -171.5t-117 -95.5l-24 48q58 30 87.5 68.5t37.5 65.5t8 38v418l-69 10v38h126v-419z" />
    <glyph glyph-name="k" unicode="k" horiz-adv-x="517" 
d="M140 700v-652l99 -10v-38h-225v38l69 10v604l-69 10v38h126zM227 267l210 -222l75 -7v-38h-113l-250 261l197 197l-55 11v31h198v-31l-68 -13z" />
    <glyph glyph-name="l" unicode="l" horiz-adv-x="242" 
d="M164 700l-1 -652l99 -10v-38h-225v38l69 10v604l-69 10v38h127z" />
    <glyph glyph-name="m" unicode="m" horiz-adv-x="935" 
d="M855 48l89 -10v-38h-218v38l69 10v268q0 14 -8.5 44.5t-41 60.5t-95.5 30q-50 0 -84.5 -28t-50.5 -66t-17 -66v-243l89 -10v-38h-217v38l69 10v279q0 12 -8.5 40.5t-39 56t-89.5 27.5q-54 0 -87 -24.5t-46.5 -57t-13.5 -58.5v-263l89 -10v-38h-216v38l69 10v404l-69 10
v38h121l6 -89q23 43 63.5 70.5t92.5 27.5q66 0 104.5 -27t53.5 -56.5t15 -37.5q25 58 66 89.5t109 31.5q121 0 158.5 -72.5t37.5 -149.5v-239z" />
    <glyph glyph-name="n" unicode="n" horiz-adv-x="617" 
d="M525 48l89 -10v-38h-216v38l69 10l-1 269q0 13 -9 42t-41 57.5t-94 28.5t-99.5 -25.5t-52.5 -57t-15 -51.5v-263l89 -10v-38h-216v38l69 10v404l-69 10v38h120l7 -80q0 3 24 25t63 41t89 19q116 0 155 -72t39 -145v-240z" />
    <glyph glyph-name="o" unicode="o" horiz-adv-x="552" 
d="M402 473q56 -33 88 -92t32 -132q0 -75 -31 -133.5t-87 -91.5t-128 -33t-128 33t-87 91.5t-31 133.5t31 133.5t87 91t128 32.5q70 0 126 -33zM373 71q42 26 65 73t23 108q0 95 -48.5 148t-136.5 53q-84 0 -133.5 -54.5t-49.5 -146.5q0 -61 23 -108t64.5 -73t95.5 -26
q55 0 97 26z" />
    <glyph glyph-name="p" unicode="p" 
d="M244 15.5q-42 22.5 -64.5 48.5t-22.5 30v-246l99 -10v-38h-230v38l69 10v604l-69 10v38h123l9 -91q0 4 25 30t67 48t96 22q76 0 128.5 -37t78.5 -96t26 -126q0 -63 -24 -121.5t-76.5 -97t-132.5 -38.5q-60 0 -102 22.5zM248 428q-44 -25 -69.5 -71t-25.5 -107
q0 -52 23 -100t67 -77.5t103 -29.5q87 0 129 61t42 146q0 53 -18.5 99t-57 75t-95.5 29q-54 0 -98 -25z" />
    <glyph glyph-name="q" unicode="q" 
d="M146 34q-56 41 -81 99.5t-25 112.5q0 67 28 127.5t81.5 98t125.5 37.5q58 0 99 -21t64 -45t23 -28l9 85h54v-652l89 -10v-38h-151v305q0 -5 -19.5 -33.5t-58 -53.5t-96.5 -25q-86 0 -142 41zM179 424q-39 -29 -58 -76t-19 -101q0 -51 21 -97.5t63.5 -76.5t105.5 -30
q67 0 105 41t51.5 88t13.5 72v13v18q0 40 -17.5 80.5t-59.5 69t-109 28.5q-58 0 -97 -29z" />
    <glyph glyph-name="r" unicode="r" horiz-adv-x="378" 
d="M243 480.5q50 25.5 105 28.5v-70q-90 -4 -140 -41t-50 -112v-238l99 -10v-38h-226v38l69 10v404l-69 10v38h119l11 -96q32 51 82 76.5z" />
    <glyph glyph-name="s" unicode="s" horiz-adv-x="425" 
d="M353 238.5q42 -36.5 42 -97.5q0 -40 -23 -74t-67.5 -54.5t-106.5 -20.5q-36 0 -72.5 9t-61.5 18.5t-32 12.5v109h43l10 -68q4 -2 20 -8t41 -12t52 -6q53 0 95.5 21t42.5 63q0 46 -28 67.5t-101 29.5q-65 13 -98.5 24t-56 38t-22.5 78q0 39 24.5 71t67 50.5t96.5 18.5
q37 0 70 -7t52.5 -14.5t24.5 -9.5v-108h-42l-13 68q-2 2 -11 6.5t-29.5 8.5t-51.5 4q-51 0 -91 -23t-40 -65q0 -40 37.5 -59t100.5 -27q86 -7 128 -43.5z" />
    <glyph glyph-name="t" unicode="t" horiz-adv-x="328" 
d="M261.5 44q20.5 5 26.5 7v-51q-5 -2 -25 -6.5t-42 -4.5q-62 0 -86 36t-24 101v319h-81v38l81 21v86l60 9v-99h121v-55h-121v-337q0 -30 10.5 -49.5t41.5 -19.5q18 0 38.5 5z" />
    <glyph glyph-name="u" unicode="u" horiz-adv-x="596" 
d="M500 48l79 -10v-38h-131l-11 75q-18 -36 -61 -60.5t-91 -24.5q-111 0 -150 71.5t-39 151.5v239l-69 10v38h125l2 -315q0 -12 10.5 -44t41.5 -62t89 -30q53 0 86.5 27t48 60.5t14.5 53.5v262l-69 10v38h124l1 -61v-391z" />
    <glyph glyph-name="v" unicode="v" 
d="M313 69l143 383l-61 14v34h197v-34l-79 -17l-169 -449h-68l-188 453l-69 13v34h230v-34l-91 -16z" />
    <glyph glyph-name="w" unicode="w" horiz-adv-x="795" 
d="M30 463v37h200v-37l-77 -10l97 -387l143 389h52l129 -389l96 385l-59 12v37h194v-37l-82 -12l-114 -451h-68l-127 375l-137 -375h-70l-113 453z" />
    <glyph glyph-name="x" unicode="x" horiz-adv-x="570" 
d="M467 41l86 -11v-30h-213v30l55 10l-126 174l-132 -174l80 -10v-30h-211v30l70 13l163 210l-163 207l-61 13v27h202v-28l-67 -13l122 -152l111 153l-59 12v28h193v-28l-71 -12l-142 -192z" />
    <glyph glyph-name="y" unicode="y" horiz-adv-x="557" 
d="M347 462v38h195v-38l-80 -12l-191 -506q-7 -19 -28 -50t-59.5 -57.5t-91.5 -26.5v52q55 10 91 46.5t63 118.5l-173 423l-63 12v38h203v-38l-77 -12l142 -347l129 347z" />
    <glyph glyph-name="z" unicode="z" horiz-adv-x="459" 
d="M409 500v-54l-304 -391h253l8 77h42v-132h-378v47l309 399h-249l-7 -77h-42v131h368z" />
    <glyph glyph-name="zero" unicode="0" horiz-adv-x="626" 
d="M451.5 664.5q61.5 -46.5 93 -128.5t31.5 -188q0 -104 -31.5 -186.5t-93 -129.5t-148.5 -47q-79 0 -141 47.5t-97 130.5t-35 185q0 103 35 186t97 130t141 47q87 0 148.5 -46.5zM465 129.5q47 86.5 47 218.5q0 135 -47 220.5t-162 85.5q-66 0 -113 -43t-70.5 -113
t-23.5 -150q0 -78 23.5 -148t70.5 -113.5t113 -43.5q115 0 162 86.5z" />
    <glyph glyph-name="one" unicode="1" horiz-adv-x="390" 
d="M237 700l-1 -652l119 -10v-38h-282v38l103 10v604l-76 10v38h137z" />
    <glyph glyph-name="two" unicode="2" horiz-adv-x="535" 
d="M418 662.5q62 -47.5 62 -149.5q0 -14 -1 -22q-6 -67 -82.5 -163t-168.5 -184.5t-92 -84.5h293l21 100h40v-159h-440v62q0 -5 99 86.5t181.5 188.5t87.5 154q1 6 1 18q0 76 -48 110.5t-112 34.5q-36 0 -68.5 -8.5t-52.5 -17.5t-25 -12l-15 -101h-48v126q0 2 27.5 20
t74.5 33.5t109 15.5q95 0 157 -47.5z" />
    <glyph glyph-name="three" unicode="3" horiz-adv-x="565" 
d="M453.5 327.5q46.5 -42.5 46.5 -129.5q0 -108 -74 -158t-180 -50q-52 0 -95 15.5t-71 33.5t-28 21v68q0 -2 30 -24t74 -40t94 -18q84 0 138.5 39.5t54.5 112.5q0 75 -58.5 111t-182.5 36v50q0 -3 57 11t102.5 45.5t45.5 85.5t-40.5 86.5t-107.5 32.5q-46 0 -79.5 -10
t-52.5 -21t-19 -13l-9 -92h-47v122q0 3 24 20.5t70 32.5t114 15q102 0 154.5 -44.5t52.5 -130.5q0 -58 -35.5 -94t-80.5 -56q56 -15 102.5 -57.5zM321 373v1q-1 -1 0 -1z" />
    <glyph glyph-name="four" unicode="4" horiz-adv-x="561" 
d="M408 48l99 -10v-38h-239v38l83 10v160h-344v44l307 448h94v-436h108v-56h-108v-160zM83 264h268v386z" />
    <glyph glyph-name="five" unicode="5" 
d="M500 557h-49l-9 90h-304l-15 -248q0 2 23.5 16.5t60.5 26.5t83 12q115 0 179 -57.5t64 -166.5q0 -119 -73.5 -180.5t-189.5 -61.5q-62 0 -108.5 16.5t-73.5 36t-27 22.5l1 68q0 -3 29.5 -25.5t76 -42t104.5 -19.5q88 0 143 47t55 135q0 80 -43 126.5t-137 46.5
q-56 0 -93.5 -17t-57 -36.5t-19.5 -23.5l-58 34l22 344h416v-143z" />
    <glyph glyph-name="six" unicode="6" horiz-adv-x="569" 
d="M105.5 618q64.5 94 208.5 94q49 3 93 -10.5t74.5 -30t30.5 -18.5v-114h-46l-7 79q0 1 -22.5 12t-54.5 20t-68 9q-120 0 -165 -80.5t-45 -194.5q0 2 29.5 17.5t74.5 28.5t98 13q72 0 125 -29.5t80.5 -78.5t27.5 -107q0 -103 -59.5 -172.5t-195.5 -69.5q-139 0 -191 100
t-52 273q0 165 64.5 259zM201 373q-45 -16 -71 -34.5t-26 -21.5q0 -114 36 -195t148 -81q99 0 144 50t45 136q0 41 -20 78.5t-58.5 60.5t-92.5 23q-60 0 -105 -16z" />
    <glyph glyph-name="seven" unicode="7" horiz-adv-x="566" 
d="M536 700v-41l-346 -659h-71l340 644h-311l-11 -92h-47v148h446z" />
    <glyph glyph-name="eight" unicode="8" 
d="M496 332q35 -47 35 -124q0 -80 -36.5 -128.5t-90.5 -69t-112 -20.5q-56 0 -112 22t-94 71t-38 125q0 81 37.5 127.5t86.5 64.5q0 -3 -23 15.5t-41 51t-18 79.5q0 63 32 100t78 52t92 15t91.5 -15t77 -52t31.5 -100q0 -47 -17.5 -80t-39.5 -52.5t-22 -16.5q48 -18 83 -65z
M190 633q-40 -30 -40 -83q0 -58 34.5 -94t107.5 -36q67 0 105.5 35.5t38.5 90.5q0 53 -42 85t-102 32q-62 0 -102 -30zM380.5 63q41.5 19 67 56.5t25.5 90.5t-25.5 89.5t-67 54.5t-88.5 18q-50 0 -92 -19t-67.5 -55.5t-25.5 -87.5q0 -53 27 -90.5t69.5 -56.5t88.5 -19
q47 0 88.5 19z" />
    <glyph glyph-name="nine" unicode="9" horiz-adv-x="576" 
d="M451.5 82q-60.5 -97 -196.5 -97q-53 -3 -97 12.5t-72.5 35t-28.5 21.5v107h47l11 -75l12 -10.5t48 -21.5t80 -11q108 0 152.5 79.5t44.5 187.5q0 -3 -25.5 -17.5t-66 -27t-90.5 -12.5q-73 0 -127.5 29t-83.5 80t-29 116q0 58 26.5 112t79.5 88t128 34q135 0 191.5 -86
t56.5 -257q0 -190 -60.5 -287zM362 325q40 14 65 30t25 18q0 87 -14.5 148t-55.5 97.5t-118 36.5q-50 0 -89.5 -25t-61 -65.5t-21.5 -85.5q0 -73 45 -120.5t133 -47.5q52 0 92 14z" />
    <glyph glyph-name="asterisk" unicode="*" horiz-adv-x="462" 
d="M362 595v-36l-100 5l74 -66l-26 -26l-66 73l5 -99h-37l5 99l-66 -73l-26 26l73 66l-98 -5v36l98 -4l-73 66l26 25l66 -73l-5 99h37l-5 -99l66 73l26 -25l-74 -66z" />
    <glyph glyph-name="backslash" unicode="\" horiz-adv-x="359" 
d="M106 700l156 -719h-56l-156 719h56z" />
    <glyph glyph-name="bullet" unicode="&#x2022;" horiz-adv-x="264" 
d="M183.5 229.5q19.5 18.5 19.5 47.5q0 31 -19 50t-49 19q-29 0 -49.5 -17t-20.5 -52q0 -29 19.5 -47.5t50.5 -18.5q29 0 48.5 18.5z" />
    <glyph glyph-name="colon" unicode=":" horiz-adv-x="185" 
d="M61 274.5q-12 11.5 -12 30.5t12 31.5t31 12.5q18 0 31.5 -11t13.5 -33q0 -19 -12.5 -30.5t-32.5 -11.5q-19 0 -31 11.5zM61 5.5q-12 11.5 -12 30.5t12 31.5t31 12.5q18 0 31.5 -11t13.5 -33q0 -19 -12.5 -30.5t-32.5 -11.5q-19 0 -31 11.5z" />
    <glyph glyph-name="comma" unicode="," horiz-adv-x="189" 
d="M123 74l-33 -157h-51l21 157h63z" />
    <glyph glyph-name="exclam" unicode="!" horiz-adv-x="220" 
d="M161 700l-16 -538h-45l-6 538h67zM91 5.5q-12 11.5 -12 30.5t12 31.5t31 12.5q18 0 31.5 -11t13.5 -33q0 -19 -12.5 -30.5t-32.5 -11.5q-19 0 -31 11.5z" />
    <glyph glyph-name="numbersign" unicode="#" horiz-adv-x="820" 
d="M720 444h-134l-14 -192h148v-56h-152l-14 -196h-56l14 196h-197l-14 -196h-56l14 196h-159v56h163l14 192h-177v56h181l14 200h56l-14 -200h197l14 200h56l-14 -200h130v-56zM516 252l14 192h-197l-14 -192h197z" />
    <glyph glyph-name="period" unicode="." horiz-adv-x="195" 
d="M66 4.5q-12 11.5 -12 30.5t12 31.5t31 12.5q18 0 31.5 -11t13.5 -33q0 -19 -12.5 -30.5t-32.5 -11.5q-19 0 -31 11.5z" />
    <glyph glyph-name="question" unicode="?" horiz-adv-x="435" 
d="M43.5 667.5q23.5 15.5 59 28.5t77.5 13q80 0 147 -35.5t67 -147.5q0 -52 -16.5 -87.5t-40.5 -57t-62 -46.5q-45 -30 -67 -55.5t-22 -67.5v-53h-60v50q0 43 14.5 73.5t36.5 50t57 43.5q35 25 54 42t32.5 44t13.5 64q0 62 -40.5 94.5t-109.5 32.5q-30 0 -54 -7.5
t-37.5 -15.5t-16.5 -11l-17 -78h-39v109q0 2 23.5 17.5zM124 5.5q-12 11.5 -12 30.5t12 31.5t31 12.5q18 0 31.5 -11t13.5 -33q0 -19 -12.5 -30.5t-32.5 -11.5q-19 0 -31 11.5z" />
    <glyph glyph-name="quotedbl" unicode="&#x22;" horiz-adv-x="265" 
d="M112 700l-33 -157h-51l21 157h63zM214 700l-33 -157h-51l21 157h63z" />
    <glyph glyph-name="quotesingle" unicode="'" horiz-adv-x="143" 
d="M112 700l-33 -157h-51l21 157h63z" />
    <glyph glyph-name="semicolon" unicode=";" horiz-adv-x="162" 
d="M51 274.5q-12 11.5 -12 30.5t12 31.5t31 12.5q18 0 31.5 -11t13.5 -33q0 -19 -12.5 -30.5t-32.5 -11.5q-19 0 -31 11.5zM115 78l-33 -157h-51l21 157h63z" />
    <glyph glyph-name="slash" unicode="/" horiz-adv-x="412" 
d="M256 700h56l-156 -719h-56z" />
    <glyph glyph-name="underscore" unicode="_" horiz-adv-x="695" 
d="M100 -44h495v-56h-495v56z" />
    <glyph glyph-name="braceleft" unicode="{" horiz-adv-x="344" 
d="M294 700h-33q-44 0 -78 -27.5t-34 -89.5v-154q0 -44 -19.5 -65t-44 -27.5t-24.5 -3.5t24.5 -5t44 -31.5t19.5 -69.5v-165q0 -49 34.5 -79t84.5 -31h26v-43h-38q0 -4 -44.5 5.5t-80 43.5t-35.5 104v163q0 19 -13 49t-53 30v57q0 -2 19 3t34.5 20t15.5 45v167q0 16 9 48.5
t43 64.5t102 32h41v-41z" />
    <glyph glyph-name="braceright" unicode="}" horiz-adv-x="322" 
d="M71 741q68 0 102 -32t43 -64.5t9 -48.5v-167q0 -30 15.5 -45t34.5 -20t19 -3v-57q-40 0 -53 -30t-13 -49v-163q0 -70 -35.5 -104t-80 -43.5t-44.5 -5.5h-38v43h26q50 1 84.5 31t34.5 79v165q0 46 19.5 69.5t44 31.5t24.5 5t-24.5 3.5t-44 27.5t-19.5 65v154
q0 62 -34 89.5t-78 27.5h-33v41h41z" />
    <glyph glyph-name="bracketleft" unicode="[" horiz-adv-x="327" 
d="M227 -71h-127v832h127v-39l-74 -8v-737l74 -9v-39z" />
    <glyph glyph-name="bracketright" unicode="]" horiz-adv-x="327" 
d="M100 -71v39l74 9v737l-74 8v39h127v-832h-127z" />
    <glyph glyph-name="parenleft" unicode="(" horiz-adv-x="407" 
d="M307 1l-25 -32q-96 75 -138.5 171t-43.5 211q1 115 43.5 211t138.5 171l25 -33q-144 -120 -146 -349q2 -229 146 -350z" />
    <glyph glyph-name="parenright" unicode=")" horiz-adv-x="357" 
d="M50 700l25 33q96 -75 138.5 -171t43.5 -211q-1 -115 -43.5 -211t-138.5 -171l-25 32q144 121 146 350q-2 229 -146 349z" />
    <glyph glyph-name="emdash" unicode="&#x2014;" horiz-adv-x="836" 
d="M50 296h736v-56h-736v56z" />
    <glyph glyph-name="endash" unicode="&#x2013;" horiz-adv-x="665" 
d="M50 296h565v-56h-565v56z" />
    <glyph glyph-name="hyphen" unicode="-" horiz-adv-x="380" 
d="M50 296h280v-56h-280v56z" />
    <glyph glyph-name="cent" unicode="&#xa2;" horiz-adv-x="478" 
d="M64 479.5q34 55.5 82 79.5t95 27v63h48v-63q43 -3 75 -14t50.5 -23t18.5 -13v-96h-34l-14 68q-15 10 -42.5 18.5t-60.5 8.5q-91 0 -141 -51.5t-50 -156.5q0 -103 50 -154.5t130 -51.5q44 0 78.5 7t55.5 15.5t21 9.5v-55q-5 -2 -24.5 -8.5t-49.5 -13t-62 -8.5v-68h-48v67
q-49 4 -97.5 31t-81.5 85.5t-33 150.5q0 90 34 145.5z" />
    <glyph glyph-name="dollar" unicode="$" 
d="M107.5 408q31.5 -35 77 -50t118.5 -28q58 -11 92 -20.5t58 -29t28 -52.5q1 -7 1 -22q0 -70 -43.5 -107t-132.5 -37q-85 0 -159 42l-13 78l-41 -1v-114q0 -1 28.5 -15.5t71.5 -28t94 -17.5v-81h47v81q93 6 148.5 55.5t55.5 144.5q0 20 -1 31q-6 53 -37.5 83t-74 43
t-111.5 26q-56 10 -89.5 19.5t-58 28.5t-29.5 52l-1 17q0 68 46 101t122 33q51 0 82.5 -9t61.5 -29l11 -78h40v116q0 2 -20.5 14t-57.5 23.5t-87 14.5v80h-47v-79q-56 -2 -104.5 -24t-77.5 -64t-29 -100q0 -62 31.5 -97z" />
    <glyph glyph-name="plus" unicode="+" horiz-adv-x="390" 
d="M340 374v-56h-117v-117h-56v117h-117v56h117v117h56v-117h117z" />
    <glyph glyph-name="minus" unicode="&#x2212;" 
d="M160 362h290v-56h-290v56z" />
    <glyph glyph-name="multiply" unicode="&#xd7;" horiz-adv-x="345" 
d="M284 411l-86 -86l86 -86l-33 -33l-86 86l-87 -86l-32 33l86 86l-86 86l32 33l87 -86l86 86z" />
    <glyph glyph-name="equal" unicode="=" horiz-adv-x="390" 
d="M50 450h290v-56h-290v56zM50 299h290v-56h-290v56z" />
    <glyph glyph-name="greater" unicode="&#x3e;" horiz-adv-x="422" 
d="M50 559l322 -204v-62l-322 -204v67l265 169l-265 167v67z" />
    <glyph glyph-name="less" unicode="&#x3c;" horiz-adv-x="422" 
d="M372 559v-67l-265 -167l265 -169v-67l-322 204v62z" />
    <glyph glyph-name="percent" unicode="%" 
d="M238.5 667.5q36.5 -40.5 36.5 -100.5q0 -61 -36 -101.5t-99 -40.5t-99.5 41t-36.5 101t36.5 100.5t99.5 40.5q62 0 98.5 -40.5zM522 700h60l-506 -700h-60zM202.5 496q23.5 26 23.5 73t-22.5 71t-63.5 24q-38 0 -62 -24.5t-24 -70.5t24.5 -72.5t61.5 -26.5q39 0 62.5 26z
M557.5 233.5q36.5 -40.5 36.5 -100.5q0 -61 -36 -101.5t-99 -40.5t-99.5 41t-36.5 101t36.5 100.5t99.5 40.5q62 0 98.5 -40.5zM521.5 62q23.5 26 23.5 73t-22.5 71t-63.5 24q-38 0 -62 -24.5t-24 -70.5t24.5 -72.5t61.5 -26.5q39 0 62.5 26z" />
    <glyph glyph-name="at" unicode="@" horiz-adv-x="915" 
d="M829 125q-41 -63 -111 -63q-55 0 -84.5 36.5t-38.5 69.5q0 -5 -17.5 -30t-53 -47t-88.5 -22q-61 0 -105.5 31t-68 81.5t-23.5 107.5q0 45 20.5 93.5t66 83t117.5 34.5q52 0 85 -22t49 -46.5t16 -29.5l8 88h40v-283q0 -23 15.5 -59.5t65.5 -36.5q44 0 69 54.5t25 123.5
q0 102 -48 184.5t-130.5 130t-180.5 47.5q-100 0 -181.5 -47.5t-128 -130t-46.5 -184.5q0 -103 47 -185.5t128.5 -129.5t180.5 -47q48 0 99 11.5t89 32.5v-49q-44 -25 -88 -35t-100 -10q-113 0 -207.5 56t-149.5 150.5t-55 205.5q0 112 55.5 206.5t150 150t206.5 55.5
q113 0 208 -56t150 -150.5t55 -205.5q0 -101 -41 -164zM547.5 171.5q36.5 42.5 36.5 115.5q0 66 -34 113.5t-104 47.5q-72 0 -109.5 -47.5t-37.5 -113.5q0 -43 17.5 -79t49.5 -57.5t75 -21.5q70 0 106.5 42.5z" />
    <glyph glyph-name="ampersand" unicode="&#x26;" horiz-adv-x="606" 
d="M571 81.5q35 -32.5 46 -41.5l-37 -42q-14 13 -47 44t-55 53q-43 -54 -91.5 -79t-129.5 -25q-70 0 -124 33.5t-83 87.5t-29 111q0 73 37.5 129.5t102.5 85.5q-4 4 -15 19.5t-21 39.5t-10 49q0 47 23 84.5t64 58t92 20.5q34 0 65 -9.5t52.5 -20.5t21.5 -12v-49l-1 -63h-36
l-14 76q-3 2 -14 7.5t-31.5 10.5t-47.5 5q-57 0 -86 -31.5t-29 -78.5q0 -43 58.5 -112t166.5 -176q35 -33 65 -65q2 3 6 16t8 39.5t4 64.5h56q0 -48 -6.5 -85.5t-15 -61t-8.5 -20.5q28 -30 63 -62.5zM283.5 292q-75.5 81 -91.5 103q-57 -26 -84.5 -69.5t-27.5 -106.5
q0 -41 25 -82t66 -66.5t86 -25.5q71 0 109.5 22.5t70.5 65.5q-78 78 -153.5 159z" />
    <glyph glyph-name="asciicircum" unicode="^" 
d="M130 469l129 235h45l129 -235h-49l-102 193l-103 -193h-49z" />
    </font>
</defs>
</svg>
