<?xml version="1.0" encoding="UTF-8"?>
<svg width="43px" height="60px" viewBox="0 0 43 60" version="1.1" xmlns="http://www.w3.org/2000/svg" xmlns:xlink="http://www.w3.org/1999/xlink">
    <!-- Generator: Sketch 40.3 (33839) - http://www.bohemiancoding.com/sketch -->
    <title>logo</title>
    <desc>Created with Sketch.</desc>
    <defs>
        <linearGradient x1="70.3339577%" y1="100%" x2="7.83132098%" y2="18.3315851%" id="linearGradient-1">
            <stop stop-color="#E9EAEB" offset="0%"></stop>
            <stop stop-color="#ACB1BE" offset="100%"></stop>
        </linearGradient>
    </defs>
    <g id="Page-1" stroke="none" stroke-width="1" fill="none" fill-rule="evenodd">
        <g id="high-fidelity" transform="translate(-99.000000, -30.000000)" fill="url(#linearGradient-1)">
            <g id="header">
                <g id="logo" transform="translate(99.000000, 30.000000)">
                    <path d="M27.7143962,41.7404922 L20.5832956,55.3768575 C1.00278423,47.1079103 2.22048097,54.3392791 1.85677191,55.3768575 C-8.1863084,32.519172 25.689681,40.99146 27.7143962,41.7404922 Z" id="Path" transform="translate(13.857198, 47.484826) scale(-1, -1) translate(-13.857198, -47.484826) "></path>
                    <path d="M40.798448,4.90995602 L33.4105898,18.5941681 C33.4105898,18.5941681 16.29431,13.6731885 19.4207661,19.6320611 C9.64573454,18.5941681 13.6880341,-7.05288586 40.798448,4.90995602 Z" id="Path"></path>
                    <path d="M40.6321246,4.89307026 C20.228591,-5.15885059 7.93470187,3.39140893 7.93470187,3.39140893 C2.20303338,14.2195292 16.7559838,18.1674728 16.7559838,18.1674728 C9.51210734,-1.04849294 33.3953627,1.12113042 40.6321246,4.89307026 Z" id="Path-3"></path>
                    <path d="M8.46838608,3.20034137 C3.13395623,5.14962391 -0.540066468,12.9636721 0.175936103,17.4954338 C0.734849939,36.4052607 27.5632118,34.5494982 34.3592156,47.3332404 C39.4980672,59.3083273 25.3202716,59.3083273 25.3202716,59.3083273 C25.3202716,59.3083273 41.8886862,59.7957161 42.6275788,39.4056918 C41.8886862,17.4786477 -2.47809364,21.7345458 8.46838608,3.20034137 Z" id="Path-2"></path>
                    <path d="M25.6952648,39.5927947 C43.0131215,49.0008815 33.0280239,57.2956959 33.0280239,57.2956959 C18.038086,64.6651856 0,53.231497 0,53.231497 C0,53.231497 36.2977883,63.040325 25.6952648,39.5927947 Z" id="Path-4"></path>
                </g>
            </g>
        </g>
    </g>
</svg>