<?xml version="1.0" encoding="UTF-8" standalone="no"?>
<svg width="30px" height="28px" viewBox="0 0 30 28" version="1.1" xmlns="http://www.w3.org/2000/svg" xmlns:xlink="http://www.w3.org/1999/xlink">
    <!-- Generator: Sketch 43.2 (39069) - http://www.bohemiancoding.com/sketch -->
    <title>icon-work</title>
    <desc>Created with Sketch.</desc>
    <defs></defs>
    <g id="Page-1" stroke="none" stroke-width="1" fill="none" fill-rule="evenodd">
        <g id="greg-sargent-resume" transform="translate(-210.000000, -44.000000)" fill="#000000">
            <g id="icon/work" transform="translate(210.000000, 43.000000)">
                <path d="M28.8286131,1.8 L1.17138692,1.8 C0.524260725,1.8 0,2.32426072 0,2.97138692 L0,21.9738859 C0,22.6204915 0.524260725,23.1452728 1.17138692,23.1452728 L12.6166181,23.1452728 L12.3703665,25.7967722 C12.3662016,25.8618492 12.2527072,27.3747605 9.63713036,27.3747605 C9.42159517,27.3747605 9.24666805,27.5496876 9.24666805,27.7652228 C9.24666805,27.9812786 9.42159517,28.1556851 9.63713036,28.1556851 L20.3670346,28.1556851 C20.5825698,28.1556851 20.7574969,27.9812786 20.7574969,27.7652228 C20.7574969,27.5496876 20.5825698,27.3747605 20.3670346,27.3747605 C17.7514577,27.3747605 17.6374427,25.8597668 17.631716,25.7764681 L17.3854644,23.1452728 L28.8286131,23.1452728 C29.4757393,23.1452728 30,22.6204915 30,21.9738859 L30,2.97138692 C30,2.32426072 29.4736568,1.8 28.8286131,1.8 L28.8286131,1.8 Z M17.6988755,27.3747605 L12.303207,27.3747605 C13.1065181,26.7057684 13.1492087,25.8498751 13.1471262,25.8498751 L13.3996252,23.1452728 L16.6003748,23.1452728 L16.8507913,25.8254061 C16.8507913,25.8394627 16.8955643,26.703686 17.6988755,27.3747605 L17.6988755,27.3747605 Z M29.2190754,21.9738859 C29.2190754,22.1894211 29.0446689,22.3643482 28.8286131,22.3643482 L1.17138692,22.3643482 C0.955331112,22.3643482 0.780924615,22.1894211 0.780924615,21.9738859 L0.780924615,19.6550604 L29.2190754,19.6550604 L29.2190754,21.9738859 Z M29.2190754,18.8741358 L0.780924615,18.8741358 L0.780924615,2.97138692 C0.780924615,2.75533111 0.955331112,2.58092461 1.17138692,2.58092461 L28.8286131,2.58092461 C29.0446689,2.58092461 29.2190754,2.75533111 29.2190754,2.97138692 L29.2190754,18.8741358 Z M24.4689713,6.26168263 L19.4413786,6.26168263 L19.4413786,5.34019159 C19.4413786,5.12465639 19.2664515,4.94972928 19.0509163,4.94972928 L5.04321116,4.94972928 C4.82767597,4.94972928 4.65274885,5.12465639 4.65274885,5.34019159 L4.65274885,16.7656393 C4.65274885,16.9811745 4.82767597,17.1561016 5.04321116,17.1561016 L19.0509163,17.1561016 C19.2664515,17.1561016 19.4413786,16.9811745 19.4413786,16.7656393 L19.4413786,15.9357768 L24.4689713,15.9357768 C24.6845065,15.9357768 24.8594336,15.7608496 24.8594336,15.5453145 L24.8594336,6.65214494 C24.8594336,6.43660975 24.6845065,6.26168263 24.4689713,6.26168263 L24.4689713,6.26168263 Z M18.660454,16.375177 L5.43367347,16.375177 L5.43367347,7.93129946 L18.660454,7.93129946 L18.660454,16.375177 Z M18.660454,7.15037484 L5.43367347,7.15037484 L5.43367347,5.73065389 L18.660454,5.73065389 L18.660454,7.15037484 Z M24.078509,15.1548521 L19.4413786,15.1548521 L19.4413786,9.00897543 L24.078509,9.00897543 L24.078509,15.1548521 Z M24.078509,8.22805081 L19.4413786,8.22805081 L19.4413786,7.04260725 L24.078509,7.04260725 L24.078509,8.22805081 Z M7.52655144,6.83279883 C7.74208663,6.83279883 7.91701374,6.65839234 7.91701374,6.44233653 C7.91701374,6.22680133 7.74208663,6.05187422 7.52655144,6.05187422 L7.48958767,6.05187422 C7.27405248,6.05187422 7.11734694,6.22680133 7.11734694,6.44233653 C7.11734694,6.65839234 7.31049563,6.83279883 7.52655144,6.83279883 L7.52655144,6.83279883 Z M8.69793836,6.83279883 C8.91347355,6.83279883 9.08840067,6.65839234 9.08840067,6.44233653 C9.08840067,6.22680133 8.91347355,6.05187422 8.69793836,6.05187422 L8.66097459,6.05187422 C8.4454394,6.05187422 8.28873386,6.22680133 8.28873386,6.44233653 C8.28873386,6.65839234 8.48188255,6.83279883 8.69793836,6.83279883 L8.69793836,6.83279883 Z M6.35516451,6.83279883 C6.57069971,6.83279883 6.74562682,6.65839234 6.74562682,6.44233653 C6.74562682,6.22680133 6.57069971,6.05187422 6.35516451,6.05187422 L6.31820075,6.05187422 C6.10266556,6.05187422 5.94596002,6.22680133 5.94596002,6.44233653 C5.94596002,6.65839234 6.1391087,6.83279883 6.35516451,6.83279883 L6.35516451,6.83279883 Z" id="Page-1"></path>
            </g>
        </g>
    </g>
</svg>