<?xml version="1.0" encoding="UTF-8" standalone="no"?>
<svg width="26px" height="30px" viewBox="0 0 26 30" version="1.1" xmlns="http://www.w3.org/2000/svg" xmlns:xlink="http://www.w3.org/1999/xlink">
    <!-- Generator: Sketch 43.2 (39069) - http://www.bohemiancoding.com/sketch -->
    <title>icon-school</title>
    <desc>Created with Sketch.</desc>
    <defs></defs>
    <g id="Page-1" stroke="none" stroke-width="1" fill="none" fill-rule="evenodd">
        <g id="greg-sargent-resume" transform="translate(-212.000000, -543.000000)" fill="#000000">
            <g id="icon/school" transform="translate(210.000000, 543.000000)">
                <g id="Page-1" transform="translate(2.400000, 0.000000)">
                    <path d="M15.3658537,29.6485714 L9.37317073,29.6485714 C8.36025366,29.6485714 7.52926829,28.8208163 7.52926829,27.8118367 L7.52926829,2.18816327 C7.52926829,1.17918367 8.36025366,0.351428571 9.37317073,0.351428571 L15.3658537,0.351428571 C16.3787707,0.351428571 17.2097561,1.17918367 17.2097561,2.18816327 L17.2097561,27.8571429 C17.2097561,28.8208163 16.3787707,29.6485714 15.3658537,29.6485714 L15.3658537,29.6485714 Z M9.37317073,1.26979592 C8.8667122,1.26979592 8.45121951,1.68367347 8.45121951,2.18816327 L8.45121951,27.8571429 C8.45121951,28.3616327 8.8667122,28.7755102 9.37317073,28.7755102 L15.3658537,28.7755102 C15.8723122,28.7755102 16.2878049,28.3616327 16.2878049,27.8571429 L16.2878049,2.18816327 C16.2878049,1.68367347 15.8723122,1.26979592 15.3658537,1.26979592 L9.37317073,1.26979592 Z" id="Fill-1"></path>
                    <path d="M14.904878,7.37816327 L9.83414634,7.37816327 C9.55817561,7.37816327 9.37317073,7.19387755 9.37317073,6.91897959 C9.37317073,6.64408163 9.55817561,6.45979592 9.83414634,6.45979592 L14.904878,6.45979592 C15.1808488,6.45979592 15.3658537,6.64408163 15.3658537,6.91897959 C15.3658537,7.19387755 15.1808488,7.37816327 14.904878,7.37816327 L14.904878,7.37816327 Z" id="Fill-2"></path>
                    <path d="M14.904878,24.8271429 L9.83414634,24.8271429 C9.55817561,24.8271429 9.37317073,24.6428571 9.37317073,24.3679592 C9.37317073,24.0930612 9.55817561,23.9087755 9.83414634,23.9087755 L14.904878,23.9087755 C15.1808488,23.9087755 15.3658537,24.0930612 15.3658537,24.3679592 C15.3658537,24.6428571 15.1808488,24.8271429 14.904878,24.8271429 L14.904878,24.8271429 Z" id="Fill-3"></path>
                    <path d="M13.9829268,26.6638776 L10.7560976,26.6638776 C10.4801268,26.6638776 10.295122,26.4795918 10.295122,26.2046939 C10.295122,25.9297959 10.4801268,25.7455102 10.7560976,25.7455102 L13.9829268,25.7455102 C14.2588976,25.7455102 14.4439024,25.9297959 14.4439024,26.2046939 C14.4439024,26.4795918 14.2588976,26.6638776 13.9829268,26.6638776 L13.9829268,26.6638776 Z" id="Fill-4"></path>
                    <path d="M6.60731707,29.6485714 L1.99756098,29.6485714 C0.984643902,29.6485714 0.153658537,28.8208163 0.153658537,27.8118367 L0.153658537,4.48408163 C0.153658537,3.47510204 0.984643902,2.64734694 1.99756098,2.64734694 L6.60731707,2.64734694 C7.62023415,2.64734694 8.45121951,3.47510204 8.45121951,4.48408163 L8.45121951,27.8571429 C8.45121951,28.8208163 7.62023415,29.6485714 6.60731707,29.6485714 L6.60731707,29.6485714 Z M1.99756098,3.56571429 C1.49110244,3.56571429 1.07560976,3.97959184 1.07560976,4.48408163 L1.07560976,27.8571429 C1.07560976,28.3616327 1.49110244,28.7755102 1.99756098,28.7755102 L6.60731707,28.7755102 C7.11377561,28.7755102 7.52926829,28.3616327 7.52926829,27.8571429 L7.52926829,4.48408163 C7.52926829,3.97959184 7.11377561,3.56571429 6.60731707,3.56571429 L1.99756098,3.56571429 Z" id="Fill-5"></path>
                    <path d="M6.14634146,9.67408163 L2.45853659,9.67408163 C2.18256585,9.67408163 1.99756098,9.48979592 1.99756098,9.21489796 C1.99756098,8.94 2.18256585,8.75571429 2.45853659,8.75571429 L6.14634146,8.75571429 C6.4223122,8.75571429 6.60731707,8.94 6.60731707,9.21489796 C6.60731707,9.48979592 6.4223122,9.67408163 6.14634146,9.67408163 L6.14634146,9.67408163 Z" id="Fill-6"></path>
                    <path d="M6.14634146,24.8271429 L2.45853659,24.8271429 C2.18256585,24.8271429 1.99756098,24.6428571 1.99756098,24.3679592 C1.99756098,24.0930612 2.18256585,23.9087755 2.45853659,23.9087755 L6.14634146,23.9087755 C6.4223122,23.9087755 6.60731707,24.0930612 6.60731707,24.3679592 C6.60731707,24.6428571 6.4223122,24.8271429 6.14634146,24.8271429 L6.14634146,24.8271429 Z" id="Fill-7"></path>
                    <path d="M5.22439024,26.6638776 L3.3804878,26.6638776 C3.10451707,26.6638776 2.9195122,26.4795918 2.9195122,26.2046939 C2.9195122,25.9297959 3.10451707,25.7455102 3.3804878,25.7455102 L5.22439024,25.7455102 C5.50036098,25.7455102 5.68536585,25.9297959 5.68536585,26.2046939 C5.68536585,26.4795918 5.50036098,26.6638776 5.22439024,26.6638776 L5.22439024,26.6638776 Z" id="Fill-8"></path>
                    <path d="M23.202439,29.6485714 L18.1317073,29.6485714 C17.1187902,29.6485714 16.2878049,28.8208163 16.2878049,27.8118367 L16.2878049,8.15755102 C16.2878049,7.14857143 17.1187902,6.32081633 18.1317073,6.32081633 L23.202439,6.32081633 C24.2153561,6.32081633 25.0463415,7.14857143 25.0463415,8.15755102 L25.0463415,27.8571429 C25.0463415,28.8208163 24.2153561,29.6485714 23.202439,29.6485714 L23.202439,29.6485714 Z M18.1317073,7.23918367 C17.6252488,7.23918367 17.2097561,7.65306122 17.2097561,8.15755102 L17.2097561,27.8571429 C17.2097561,28.3616327 17.6252488,28.7755102 18.1317073,28.7755102 L23.202439,28.7755102 C23.7088976,28.7755102 24.1243902,28.3616327 24.1243902,27.8571429 L24.1243902,8.15755102 C24.1243902,7.65306122 23.7088976,7.23918367 23.202439,7.23918367 L18.1317073,7.23918367 Z" id="Fill-9"></path>
                    <path d="M22.7414634,13.347551 L18.5926829,13.347551 C18.3167122,13.347551 18.1317073,13.1632653 18.1317073,12.8883673 C18.1317073,12.6134694 18.3167122,12.4291837 18.5926829,12.4291837 L22.7414634,12.4291837 C23.0174341,12.4291837 23.202439,12.6134694 23.202439,12.8883673 C23.202439,13.1632653 23.0174341,13.347551 22.7414634,13.347551 L22.7414634,13.347551 Z" id="Fill-10"></path>
                    <path d="M22.7414634,24.8271429 L18.5926829,24.8271429 C18.3167122,24.8271429 18.1317073,24.6428571 18.1317073,24.3679592 C18.1317073,24.0930612 18.3167122,23.9087755 18.5926829,23.9087755 L22.7414634,23.9087755 C23.0174341,23.9087755 23.202439,24.0930612 23.202439,24.3679592 C23.202439,24.6428571 23.0174341,24.8271429 22.7414634,24.8271429 L22.7414634,24.8271429 Z" id="Fill-11"></path>
                    <path d="M21.8195122,26.6638776 L19.5146341,26.6638776 C19.2386634,26.6638776 19.0536585,26.4795918 19.0536585,26.2046939 C19.0536585,25.9297959 19.2386634,25.7455102 19.5146341,25.7455102 L21.8195122,25.7455102 C22.0954829,25.7455102 22.2804878,25.9297959 22.2804878,26.2046939 C22.2804878,26.4795918 22.0954829,26.6638776 21.8195122,26.6638776 L21.8195122,26.6638776 Z" id="Fill-12"></path>
                </g>
            </g>
        </g>
    </g>
</svg>