<?xml version="1.0" encoding="UTF-8" standalone="no"?>
<svg width="30px" height="30px" viewBox="0 0 30 30" version="1.1" xmlns="http://www.w3.org/2000/svg" xmlns:xlink="http://www.w3.org/1999/xlink">
    <!-- Generator: Sketch 43.2 (39069) - http://www.bohemiancoding.com/sketch -->
    <title>icon-skills</title>
    <desc>Created with Sketch.</desc>
    <defs></defs>
    <g id="Page-1" stroke="none" stroke-width="1" fill="none" fill-rule="evenodd">
        <g id="greg-sargent-resume" transform="translate(-20.000000, -327.000000)" fill="#000000">
            <g id="icon/work" transform="translate(20.000000, 327.000000)">
                <g id="Page-1">
                    <path d="M13.9204,5.2892 C13.7376,5.1124 13.4484,5.1124 13.2672,5.2892 C13.1656,5.3876 10.7812,7.728 10.7812,9.8436 C10.7812,11.3984 11.3828,12.308 12.1736,12.7608 L11.722,16.8236 C11.7188,16.8468 11.7188,16.8688 11.7188,16.892 L12.1532,28.6108 C12.1828,29.3908 12.8156,30 13.5936,30 C14.372,30 15.0048,29.3908 15.0344,28.6108 L15.4688,16.892 C15.4704,16.8688 15.4688,16.8452 15.4656,16.8236 L15.014,12.7608 C15.8048,12.308 16.4064,11.3984 16.4064,9.8436 C16.4064,7.728 14.022,5.3876 13.9204,5.2892 L13.9204,5.2892 Z M13.5952,6.3032 C14.0248,6.7764 14.6064,7.5108 15.008,8.2844 L14.5312,8.9984 L13.9844,8.1764 C13.8108,7.9156 13.378,7.9156 13.2048,8.1764 L12.6564,8.9984 L12.1764,8.2796 C12.6,7.464 13.2204,6.7188 13.5952,6.3032 L13.5952,6.3032 Z M14.5296,16.892 L14.0968,28.5764 C14.0876,28.85 13.8656,29.0624 13.5936,29.0624 C13.322,29.0624 13.1,28.85 13.0908,28.5764 L12.658,16.892 L13.0812,13.0828 C13.2516,13.1108 13.4236,13.1248 13.5936,13.1248 C13.764,13.1248 13.936,13.1108 14.1064,13.0828 L14.5296,16.892 Z M13.5936,12.1876 C12.4016,12.1876 11.7188,11.3328 11.7188,9.8436 C11.7188,9.686 11.7376,9.5248 11.772,9.3608 L12.2672,10.1032 C12.4408,10.364 12.8736,10.364 13.0468,10.1032 L13.5936,9.2828 L14.1408,10.1048 C14.228,10.2344 14.3752,10.3124 14.5312,10.3124 C14.6876,10.3124 14.8344,10.2344 14.922,10.1032 L15.4156,9.3624 C15.45,9.5264 15.4688,9.6876 15.4688,9.8436 C15.4688,11.3328 14.786,12.1876 13.5936,12.1876 L13.5936,12.1876 Z" id="Fill-1"></path>
                    <path d="M7.0312,15.9376 L6.5624,15.9376 C5.2704,15.9376 4.2188,14.886 4.2188,13.5936 L5.1564,13.5936 C5.4156,13.5936 5.6248,13.3844 5.6248,13.1248 L5.6248,10.3124 C5.6248,10.0532 5.4156,9.8436 5.1564,9.8436 L4.242,9.8436 C4.478,5.8248 7.7,2.6032 11.7188,2.3672 L11.7188,3.2812 C11.7188,3.5408 11.928,3.75 12.1876,3.75 L15,3.75 C15.2592,3.75 15.4688,3.5408 15.4688,3.2812 L15.4688,2.3672 C19.4876,2.6032 22.7092,5.8248 22.9452,9.8436 L22.0312,9.8436 C21.772,9.8436 21.5624,10.0532 21.5624,10.3124 L21.5624,13.1248 C21.5624,13.3844 21.772,13.5936 22.0312,13.5936 L24.8436,13.5936 C25.1032,13.5936 25.3124,13.3844 25.3124,13.1248 L25.3124,10.3124 C25.3124,10.0532 25.1032,9.8436 24.8436,9.8436 L23.8828,9.8436 C23.7108,6.5548 21.7516,3.7376 18.9548,2.3436 L22.5876,2.3436 C22.7796,2.8876 23.2952,3.2812 23.9064,3.2812 C24.6812,3.2812 25.3124,2.65 25.3124,1.8752 C25.3124,1.1 24.6812,0.4688 23.9064,0.4688 C23.2952,0.4688 22.7796,0.8624 22.586,1.4064 L15.4688,1.4064 L15.4688,0.4688 C15.4688,0.2092 15.2592,0 15,0 L12.1876,0 C11.928,0 11.7188,0.2092 11.7188,0.4688 L11.7188,1.4064 L4.6016,1.4064 C4.408,0.8624 3.892,0.4688 3.2812,0.4688 C2.5064,0.4688 1.8752,1.1 1.8752,1.8752 C1.8752,2.65 2.5064,3.2812 3.2812,3.2812 C3.892,3.2812 4.408,2.8876 4.6016,2.3436 L8.2344,2.3436 C5.436,3.7376 3.478,6.5548 3.3048,9.8436 L2.3436,9.8436 C2.0844,9.8436 1.8752,10.0532 1.8752,10.3124 L1.8752,13.1248 C1.8752,13.3844 2.0844,13.5936 2.3436,13.5936 L3.2812,13.5936 C3.2812,14.886 2.2296,15.9376 0.9376,15.9376 L0.4688,15.9376 C0.3248,15.9376 0.1908,16.0032 0.1016,16.1156 C0.0124,16.228 -0.0204,16.3752 0.0124,16.514 L1.7548,23.9188 C1.036,23.9812 0.4688,24.578 0.4688,25.3124 C0.4688,25.878 0.808,26.3656 1.2908,26.5876 L0.486,29.4032 C0.4452,29.5452 0.4736,29.6968 0.5624,29.814 C0.6516,29.9312 0.7908,30 0.9376,30 L6.5624,30 C6.7092,30 6.8484,29.9312 6.9376,29.814 C7.0264,29.6968 7.0548,29.5452 7.014,29.4032 L6.2092,26.5876 C6.692,26.3656 7.0312,25.878 7.0312,25.3124 C7.0312,24.578 6.464,23.9812 5.7452,23.9188 L7.4876,16.514 C7.5204,16.3752 7.4876,16.228 7.3984,16.1156 C7.3092,16.0032 7.1752,15.9376 7.0312,15.9376 L7.0312,15.9376 Z M24.3752,12.6564 L22.5,12.6564 L22.5,10.7812 L24.3752,10.7812 L24.3752,12.6564 Z M23.9064,1.4064 C24.1656,1.4064 24.3752,1.6156 24.3752,1.8752 C24.3752,2.1344 24.1656,2.3436 23.9064,2.3436 C23.6468,2.3436 23.4376,2.1344 23.4376,1.8752 C23.4376,1.6156 23.6468,1.4064 23.9064,1.4064 L23.9064,1.4064 Z M12.6564,0.9376 L14.5312,0.9376 L14.5312,2.8124 L12.6564,2.8124 L12.6564,0.9376 Z M3.2812,2.3436 C3.022,2.3436 2.8124,2.1344 2.8124,1.8752 C2.8124,1.6156 3.022,1.4064 3.2812,1.4064 C3.5408,1.4064 3.75,1.6156 3.75,1.8752 C3.75,2.1344 3.5408,2.3436 3.2812,2.3436 L3.2812,2.3436 Z M2.8124,12.6564 L2.8124,10.7812 L4.6876,10.7812 L4.6876,12.6564 L2.8124,12.6564 Z M1.5592,29.0624 L2.228,26.7188 L5.272,26.7188 L5.9408,29.0624 L1.5592,29.0624 Z M6.0936,25.3124 C6.0936,25.572 5.8844,25.7812 5.6248,25.7812 L1.8752,25.7812 C1.6156,25.7812 1.4064,25.572 1.4064,25.3124 C1.4064,25.0532 1.6156,24.8436 1.8752,24.8436 L5.6248,24.8436 C5.8844,24.8436 6.0936,25.0532 6.0936,25.3124 L6.0936,25.3124 Z M4.7844,23.9064 L2.7156,23.9064 L1.0608,16.872 C1.9296,16.8408 2.7124,16.4672 3.2812,15.8844 L3.2812,19.6876 L4.2188,19.6876 L4.2188,15.8844 C4.7876,16.4672 5.5704,16.8408 6.4392,16.872 L4.7844,23.9064 Z" id="Fill-2"></path>
                    <path d="M18.2812,18.75 L18.2812,23.4376 L19.2188,23.4376 L19.2188,19.2188 L23.4376,19.2188 L23.4376,18.2812 L18.75,18.2812 C18.4908,18.2812 18.2812,18.4908 18.2812,18.75 L18.2812,18.75 Z" id="Fill-3"></path>
                    <path d="M25.9188,17.95 L17.95,25.9188 L18.6124,26.5812 L20.35,24.8436 L24.8436,24.8436 C25.1032,24.8436 25.3124,24.6344 25.3124,24.3752 L25.3124,19.8812 L26.5812,18.6124 L25.9188,17.95 Z M24.3752,23.9064 L21.2876,23.9064 L24.3752,20.8188 L24.3752,23.9064 Z" id="Fill-4"></path>
                    <polygon id="Fill-5" points="29.0624 19.6876 30 19.6876 30 18.75 29.0624 18.75"></polygon>
                    <polygon id="Fill-6" points="29.0624 21.5624 30 21.5624 30 20.6248 29.0624 20.6248"></polygon>
                    <polygon id="Fill-7" points="29.0624 23.4376 30 23.4376 30 22.5 29.0624 22.5"></polygon>
                    <polygon id="Fill-8" points="27.1876 21.5624 28.1252 21.5624 28.1252 20.6248 27.1876 20.6248"></polygon>
                    <polygon id="Fill-9" points="27.1876 23.4376 28.1252 23.4376 28.1252 22.5 27.1876 22.5"></polygon>
                    <polygon id="Fill-10" points="27.1876 25.3128 28.1252 25.3128 28.1252 24.3752 27.1876 24.3752"></polygon>
                </g>
            </g>
        </g>
    </g>
</svg>