<?xml version="1.0" encoding="UTF-8" standalone="no"?>
<svg width="30px" height="30px" viewBox="0 0 30 30" version="1.1" xmlns="http://www.w3.org/2000/svg" xmlns:xlink="http://www.w3.org/1999/xlink">
    <!-- Generator: Sketch 43.2 (39069) - http://www.bohemiancoding.com/sketch -->
    <title>icon-profile</title>
    <desc>Created with Sketch.</desc>
    <defs>
        <circle id="path-1" cx="14.4" cy="14.4" r="14.4"></circle>
    </defs>
    <g id="Page-1" stroke="none" stroke-width="1" fill="none" fill-rule="evenodd">
        <g id="greg-sargent-resume" transform="translate(-20.000000, -225.000000)">
            <g id="icon/profile" transform="translate(20.000000, 225.000000)">
                <g id="Page-1" transform="translate(0.600000, 0.600000)">
                    <mask id="mask-2" fill="white">
                        <use xlink:href="#path-1"></use>
                    </mask>
                    <use id="Mask" stroke="#000000" stroke-width="1.5" fill="#FFFFFF" xlink:href="#path-1"></use>
                    <g mask="url(#mask-2)" fill="#000000">
                        <g transform="translate(2.117647, 6.352941)">
                            <path d="M18.9626824,7.41176471 C18.9626824,6.39614118 18.3904941,5.82352941 17.2787294,5.76084706 L17.2787294,4.99807059 C17.2787294,2.23496471 15.0865412,0.233364706 12.0375529,0.233364706 C8.98856471,0.233364706 6.79637647,2.23496471 6.79637647,4.99807059 L6.79637647,5.69604706 C6.51007059,5.66470588 6.09797647,5.69604706 5.74729412,5.95101176 C5.46141176,6.17251765 5.27082353,6.49016471 5.23948235,6.93529412 C5.14376471,7.79209412 5.36696471,9 5.90611765,9.60395294 C6.16108235,9.85849412 6.44569412,10.0173176 6.79637647,10.0173176 L6.79637647,10.0173176 L6.79637647,10.2722824 L6.79637647,10.3997647 C6.70023529,11.4153882 6.82771765,12.3683294 7.14536471,13.1954824 C7.27284706,13.5131294 7.40032941,13.7994353 7.55915294,14.0857412 C7.71797647,14.3720471 7.90814118,14.6579294 8.13134118,14.9425412 C9.18042353,16.2762353 10.6725176,17.1033882 12.0705882,17.2622118 C11.7842824,17.0072471 11.6254588,16.8484235 11.7216,16.5638118 C12.4526118,17.0402824 13.3098353,16.8187765 14.2941176,16.5324706 C14.0078118,16.4697882 13.8803294,16.4367529 13.8489882,16.2461647 C14.5804235,16.0246588 15.5333647,15.6739765 16.2626824,15.0073412 C16.5176471,14.7854118 16.7391529,14.4991059 16.9297412,14.1814588 C17.0885647,13.9269176 17.2156235,13.6423059 17.3100706,13.2916235 C17.532,12.5288471 17.532,11.5445647 17.2473882,10.2739765 C17.2473882,10.2426353 17.2156235,10.1778353 17.2156235,10.1464941 L17.2156235,10.0838118 L17.2156235,10.0520471 L17.2156235,10.0520471 C18.4548706,10.0156235 18.9626824,8.71369412 18.9626824,7.41176471 L18.9626824,7.41176471 Z M12.0705882,12.8744471 C11.0549647,12.8744471 10.5136941,14.0179765 10.9588235,12.3979765 C10.9588235,12.3666353 10.9901647,12.3352941 10.9901647,12.2709176 C11.1489882,12.2078118 11.3391529,12.2391529 11.5297412,12.2709176 C11.6885647,12.3022588 11.8787294,12.3666353 12.0688941,12.3666353 C12.2908235,12.3666353 12.4826824,12.3039529 12.6728471,12.2709176 C12.8630118,12.2391529 13.0218353,12.2078118 13.1493176,12.2709176 C13.1493176,12.3022588 13.1806588,12.3336 13.1806588,12.3666353 C13.7215059,14.0196706 13.0862118,12.8744471 12.0705882,12.8744471 L12.0705882,12.8744471 Z M17.3117647,9.57261176 C17.3117647,8.93731765 17.2804235,8.84117647 17.2804235,8.80983529 L16.8039529,8.84117647 C16.8039529,8.87251765 16.8039529,9.03134118 16.8352941,9.76277647 L16.8352941,9.98428235 C16.8039529,10.0804235 16.7726118,10.1744471 16.7391529,10.2705882 C15.8823529,12.5568 13.4038588,10.9685647 12.0705882,10.9685647 C10.7038588,10.9685647 8.32150588,12.6529412 7.36856471,10.2705882 C7.33722353,10.2079059 7.33722353,10.1744471 7.30588235,10.1117647 L7.30588235,9.89025882 L7.30588235,9.79411765 L7.30588235,9.79411765 C7.30588235,9.06268235 7.33722353,8.90385882 7.33722353,8.87251765 L6.86075294,8.84117647 C6.86075294,8.87251765 6.86075294,8.96865882 6.82941176,9.60395294 L6.82941176,9.60395294 C6.63924706,9.60395294 6.44908235,9.50781176 6.3216,9.34898824 C5.87647059,8.87251765 5.68630588,7.79209412 5.78202353,7.06277647 C5.81378824,6.74512941 5.90950588,6.55496471 6.09967059,6.42748235 C6.48042353,6.17251765 7.05261176,6.3 7.05261176,6.3 L7.37025882,6.36268235 L7.33891765,6.04503529 C7.33891765,5.88621176 7.30757647,5.28268235 7.30757647,5.09209412 C7.30757647,2.61402353 9.30917647,0.803858824 12.0722824,0.803858824 C14.8349647,0.803858824 16.8369882,2.61402353 16.8369882,5.09209412 C16.8369882,5.28268235 16.8369882,5.88621176 16.8056471,6.04503529 L16.7738824,6.3 L17.0288471,6.3 C18.0444706,6.3 18.4896,6.64898824 18.4896,7.50790588 C18.4862118,8.20588235 18.2647059,9.57261176 17.3117647,9.57261176 L17.3117647,9.57261176 L17.3117647,9.57261176 Z" id="Fill-1"></path>
                            <path d="M14.9294118,6.71378824 L13.7863059,6.71378824 C13.2136941,6.71378824 12.7372235,7.12715294 12.6114353,7.63496471 C12.4526118,7.53924706 12.2624471,7.47614118 12.0722824,7.47614118 C11.8821176,7.47614118 11.6915294,7.53924706 11.5327059,7.63496471 C11.4056471,7.09581176 10.9291765,6.71378824 10.3582588,6.71378824 L9.21176471,6.71378824 C8.54512941,6.71378824 8.00385882,7.25294118 8.00385882,7.92127059 L8.00385882,8.68404706 C8.00385882,9.35068235 8.54343529,9.89152941 9.21176471,9.89152941 L10.3548706,9.89152941 C11.0215059,9.89152941 11.5627765,9.35237647 11.5627765,8.68404706 L11.5627765,8.49388235 C11.5627765,8.20757647 11.7842824,7.95430588 12.0705882,7.95430588 C12.3568941,7.95430588 12.5784,8.17623529 12.5784,8.49388235 L12.5784,8.68404706 C12.5784,9.35068235 13.1179765,9.89152941 13.7863059,9.89152941 L14.9294118,9.89152941 C15.5960471,9.89152941 16.1373176,9.35237647 16.1373176,8.68404706 L16.1373176,7.92127059 C16.1038588,7.2216 15.5960471,6.71378824 14.9294118,6.71378824 L14.9294118,6.71378824 Z M11.0549647,8.46084706 L11.0549647,8.65101176 C11.0549647,9.03134118 10.7373176,9.34898824 10.3565647,9.34898824 L9.21176471,9.34898824 C8.83143529,9.34898824 8.51378824,9.03134118 8.51378824,8.65101176 L8.51378824,7.88823529 C8.51378824,7.50790588 8.83143529,7.19025882 9.21176471,7.19025882 L10.3548706,7.19025882 C10.7356235,7.19025882 11.0532706,7.50790588 11.0532706,7.88823529 L11.0532706,8.46084706 L11.0549647,8.46084706 Z M15.6273882,8.65101176 C15.6273882,9.03134118 15.3097412,9.34898824 14.9294118,9.34898824 L13.7863059,9.34898824 C13.4055529,9.34898824 13.0879059,9.03134118 13.0879059,8.65101176 L13.0879059,7.88823529 C13.0879059,7.50790588 13.4055529,7.19025882 13.7863059,7.19025882 L14.9294118,7.19025882 C15.3097412,7.19025882 15.6273882,7.50790588 15.6273882,7.88823529 L15.6273882,8.65101176 Z" id="Fill-2"></path>
                            <path d="M17.3117647,15.2254588 C15.0882353,17.9902588 12.0705882,20.2764706 12.0705882,20.2764706 C12.0705882,20.2764706 9.05294118,17.9902588 6.82941176,15.2568 C-0.413788235,17.0356235 0.158823529,18.1156235 0.158823529,22.6588235 L23.9510118,22.6588235 C23.9823529,18.0842824 24.6176471,17.0038588 17.3117647,15.2254588 L17.3117647,15.2254588 Z" id="Fill-3"></path>
                        </g>
                    </g>
                </g>
            </g>
        </g>
    </g>
</svg>